<svg width="188" height="104" viewBox="0 0 188 104" fill="none" xmlns="http://www.w3.org/2000/svg">
<g clip-path="url(#clip0_231_32)">
<path d="M102.04 55.1704C101.06 56.7936 100.001 58.2705 98.8478 59.621C97.4684 61.2508 95.9624 62.6945 94.3498 63.9917C93.6168 64.5306 92.8372 65.0229 92.0442 65.4553C91.7844 65.595 91.5178 65.7347 91.2579 65.8611C88.246 67.3114 85.0674 67.8103 82.7885 66.4332C80.8494 65.2091 80.9227 62.3419 82.2154 59.2617C82.7419 59.1752 83.2816 59.0754 83.8214 58.9624C84.2945 58.8759 84.7743 58.7694 85.254 58.6563C90.4383 57.4788 95.6892 55.3966 97.7283 52.1634C100.46 47.9989 97.5817 45.6372 93.7035 45.6372C86.8999 45.6372 80.8561 50.6732 78.084 56.5342C78.044 56.6073 78.0107 56.6805 77.9774 56.7537C77.8641 57.0065 77.7575 57.2526 77.6642 57.4921C75.3919 63.2533 77.9774 67.185 81.4225 68.0831C85.214 69.1475 88.5592 68.429 91.6244 66.7525C91.8776 66.6195 92.1309 66.4731 92.3841 66.3201C93.177 65.8411 93.95 65.2956 94.7097 64.7102C95.6292 64.005 96.4755 63.2666 97.2685 62.4749C99.3875 60.386 101.093 58.0177 102.613 55.4564C102.899 54.9575 102.399 54.5983 102.04 55.1704ZM83.5015 56.6872C83.6814 56.3745 83.8014 56.1816 83.8813 56.0618C83.908 56.0219 83.9346 55.982 83.9546 55.9421C83.9813 55.9088 83.9879 55.8955 83.9879 55.8955C84.1545 55.6094 84.3345 55.3167 84.5144 55.0307C87.5263 50.1543 91.1913 46.4954 93.1304 46.4954C94.643 46.4954 94.5697 48.5045 92.9172 51.2986C91.0447 54.3588 88.4059 56.4344 85.2207 57.6252C85.1674 57.6518 85.1141 57.6718 85.0608 57.6917C85.0275 57.705 84.9875 57.7183 84.9475 57.7316C84.7076 57.8115 84.3678 57.9245 84.0879 58.011C84.0546 58.0243 84.0146 58.031 83.9813 58.0443C83.8147 58.0909 83.6481 58.1374 83.4815 58.184C83.4415 58.1973 83.4015 58.204 83.3549 58.2173C83.2749 58.2372 83.1816 58.2572 83.1017 58.2771C83.0217 58.2971 82.9351 58.3171 82.8551 58.337C82.8218 58.3437 82.7885 58.3503 82.7552 58.357C82.7085 58.3703 82.6686 58.3769 82.6419 58.3836C82.6152 58.3902 82.5953 58.3969 82.5819 58.3969C82.5753 58.4035 82.5686 58.4035 82.5686 58.4035C82.5686 58.4035 82.7485 58.0576 82.9751 57.6451C83.1483 57.3258 83.3482 56.9599 83.5082 56.6872H83.5015Z" fill="#FEFBF4"/>
<path d="M125.809 55.1704C124.862 56.8335 123.676 58.5033 122.43 60.0002C122.43 60.0002 122.426 60.0046 122.417 60.0135C120.811 61.9361 119.105 63.5926 117.692 64.637C114.82 66.7193 111.302 68.582 113.747 64.2112L119.278 54.239C122.577 48.2184 120.498 45.6372 118.412 45.6372C115.753 45.6372 111.875 48.2916 109.003 51.1589C110.869 47.4268 108.357 46.063 106.344 46.063L98.8476 59.621L97.2683 62.4749L97.2217 62.5614C94.9227 66.7925 97.5149 68.1496 99.5939 68.1496L106.704 55.3899C108.217 53.0948 110.156 51.0857 111.875 49.7219C115.4 46.9278 118.272 46.063 116.04 50.0811L110.509 59.9802C107.21 66.0008 109.15 68.582 111.302 68.582C114.041 68.582 117.766 66.2137 121.324 62.3153C123.103 60.3727 124.836 58.0576 126.388 55.4564C126.675 54.9575 126.168 54.5983 125.809 55.1704Z" fill="#FEFBF4"/>
<path d="M187.08 16.0929C181.116 8.70851 172.354 9.20746 162.585 12.5803C148.725 17.4567 137.95 32.3718 130.12 46.136L122.437 59.9801C122.437 59.9801 122.43 59.9934 122.43 60C122.43 60 122.426 60.0044 122.417 60.0133C121.957 60.8515 121.597 61.6166 121.324 62.3151C120.444 64.5437 120.451 66.1137 120.997 67.1449C122.65 70.5909 128.181 67.2913 130.12 65.7146C131.399 64.6768 132.712 63.4394 133.998 62.0357C135.757 60.1198 137.463 57.8978 138.956 55.4563C139.169 54.9573 138.736 54.5981 138.383 55.1702C137.49 56.7469 136.364 58.2836 135.164 59.6873C133.472 61.6831 131.633 63.4194 130.12 64.6369C127.388 66.8588 123.15 68.5819 125.595 64.2111L134.505 48.358C141.541 35.738 150.804 18.1752 163.085 13.4385C172.354 9.85276 183.055 9.5667 186.001 20.8229C188.726 19.9647 188.226 17.4567 187.08 16.0929Z" fill="#FEFBF4"/>
<path d="M152.17 50.7265L147.859 58.5433C146.28 60.8384 144.267 62.7011 142.541 64.0649C139.096 66.9322 135.791 68.2228 138.017 64.1381L144.987 51.5846C147.359 47.4268 144.774 46.063 142.688 46.063L135.165 59.6875L135.005 59.9802C134.592 60.7187 134.258 61.4039 133.999 62.0359C132.139 66.5929 133.965 68.582 135.791 68.582C138.377 68.582 142.761 65.4287 145.773 62.3419L143.767 65.8545C136.584 78.4079 127.462 96.0439 115.181 100.781C105.911 104.366 95.2098 104.652 92.2644 93.3895C89.539 94.2544 90.0388 96.7624 91.1916 98.1262C97.1489 105.511 105.911 105.012 115.68 101.639C129.541 96.7624 140.389 81.9205 148.005 68.0831L160.14 46.063C156.548 46.063 154.469 46.5686 152.17 50.7265Z" fill="#FEFBF4"/>
<path d="M185.421 55.1702C183.195 58.9754 179.89 62.7741 177.305 64.6368C174.36 66.7191 170.914 68.5818 173.353 64.211L183.409 46.0628C179.964 46.0628 177.885 46.4952 175.726 50.0077C176.012 47.5729 175.292 45.9962 173.427 45.637C167.683 44.6324 161.432 52.3029 158.773 57.1061C155.828 62.4148 155.468 68.3689 160.499 68.5818C163.158 68.5818 165.957 66.7922 168.616 63.6323C167.756 67.0783 169.262 68.5818 170.914 68.5818C175.006 68.5818 181.33 63.273 186.001 55.4562C186.287 54.9573 185.781 54.598 185.421 55.1702ZM162.652 67.0783C160.139 67.0783 161.146 62.8472 164.377 57.0395C167.609 51.2318 171.847 47.36 173.713 47.2868C175.726 47.2868 175.006 51.2318 171.774 57.0395C168.542 62.8472 164.524 67.0783 162.652 67.0783Z" fill="#FEFBF4"/>
<path d="M90.3852 65.0425C90.2786 64.7365 90.1587 64.4238 90.0254 64.1178C90.0187 64.1045 90.0121 64.0779 90.0054 64.0646C89.2724 62.4081 88.2062 60.898 86.7802 59.5408C85.5341 58.3434 84.0548 57.2923 82.3289 56.3808C82.0557 56.2411 81.7892 56.1014 81.5093 55.9684C81.3027 55.8686 81.1028 55.7821 80.8896 55.689H80.8829C80.6964 55.7422 80.5031 55.7954 80.3165 55.8486C80.2699 55.8619 80.2232 55.8686 80.1766 55.8886C80.0833 55.9085 79.9833 55.9351 79.8901 55.9551C79.7968 55.975 79.7035 56.0016 79.6102 56.0216C79.5702 56.0283 79.5369 56.0349 79.4969 56.0416C79.4436 56.0549 79.3969 56.0615 79.3703 56.0748C79.337 56.0815 79.317 56.0881 79.3037 56.0881C79.297 56.0948 79.2903 56.0948 79.2903 56.0948C79.2903 56.0948 79.4969 55.7023 79.7501 55.2366C78.0909 54.6379 76.2584 54.2121 74.246 53.9793H74.2327C72.0204 53.7065 69.7214 53.7398 67.3492 54.0591C64.9703 54.3851 62.678 55.0038 60.4857 55.9218C58.2933 56.8399 56.2876 58.0573 54.4751 59.5674C52.6693 61.0776 51.2433 62.8937 50.2171 64.9959C49.5107 66.3464 49.1043 67.7568 48.9976 69.2137C48.8844 70.6706 49.1576 71.9679 49.8106 73.0988C50.5636 70.6107 51.7164 68.2092 53.2623 65.8874C54.8083 63.5656 56.6474 61.5499 58.7865 59.8468C60.9188 58.1371 63.311 56.8465 65.9698 55.9484C68.4487 55.1235 71.0475 54.8108 73.7596 55.0437C73.9461 55.057 74.146 55.0769 74.3326 55.0969C76.7049 55.3497 78.8372 55.8886 80.723 56.7068C80.8563 56.76 80.9896 56.8199 81.1162 56.8798C83.0886 57.8045 84.7545 58.9221 86.1072 60.246C87.4199 61.5366 88.4328 62.9536 89.1258 64.5037C89.1458 64.5436 89.1724 64.5835 89.1858 64.6234C89.3124 64.9161 89.4323 65.2155 89.5389 65.5082C90.0187 66.8121 90.2786 68.116 90.3253 69.4399C90.3786 71.276 89.9987 73.0589 89.1858 74.7886C88.3728 76.5182 87.16 78.0284 85.5341 79.3323C83.9149 80.6229 81.8492 81.654 79.3636 82.4124C76.8714 83.1642 73.9794 83.4902 70.681 83.3837C67.5957 83.2706 64.2439 82.7916 60.6123 81.9268C56.9873 81.062 53.3556 80.0242 49.7373 78.8067C46.1056 77.5893 42.5673 76.2654 39.1022 74.8351C35.6371 73.3982 32.5252 72.061 29.7598 70.817C32.5785 68.9809 35.1907 66.8188 37.6029 64.3373C40.0084 61.8559 42.2674 59.1949 44.3798 56.3542C46.4921 53.5202 48.4779 50.6197 50.3437 47.646C52.2095 44.6656 54.002 41.7518 55.7412 38.8912C57.8536 39.0508 60.1858 39.3036 62.7646 39.6562C65.3301 40.0088 67.7423 40.1419 69.988 40.062C72.2336 39.9822 74.1127 39.5564 75.632 38.8047C77.1447 38.0463 77.8777 36.636 77.8243 34.587C77.4445 35.5649 76.485 36.2967 74.9457 36.7757C73.3997 37.2613 71.5872 37.6006 69.5015 37.7935C67.4225 37.9798 65.2035 38.0663 62.8512 38.033C60.4923 38.013 58.32 37.9665 56.3143 37.9132C58.1534 34.893 60.0525 31.8062 61.9916 28.6728C63.9441 25.5461 65.9298 22.5591 67.9622 19.7184C69.988 16.8844 72.0603 14.2899 74.166 11.9415C76.2784 9.58651 78.4441 7.68387 80.6697 6.22695C81.3694 6.38661 82.089 6.51966 82.8154 6.63276C83.5484 6.7392 84.2614 6.76581 84.9677 6.70594C85.9406 6.65271 86.6536 6.45314 87.1134 6.1072C87.5732 5.75462 87.8064 5.37542 87.8064 4.96961C87.8064 4.5638 87.5998 4.19791 87.1934 3.87193C86.7869 3.54595 86.2071 3.39294 85.4475 3.39294C83.555 3.39294 81.4693 4.06486 79.197 5.41533C76.8181 4.87647 74.4392 4.27774 72.0537 3.63244C69.6748 2.98714 67.2959 2.3884 64.9036 1.84954C62.5247 1.31068 60.1258 0.864959 57.7269 0.512371C55.3147 0.159784 52.8892 -0.0131836 50.457 -0.0131836C47.4184 -0.0131836 44.4264 0.339404 41.4411 1.03793C38.4692 1.73645 35.6971 2.82082 33.125 4.27774C30.5461 5.73466 28.3072 7.58408 26.3814 9.826C24.4623 12.0746 23.0696 14.7622 22.2033 17.8956C21.6103 20.0045 21.3371 22.0867 21.3904 24.1357C21.4437 26.1914 21.7702 28.0408 22.3699 29.684C22.963 31.3338 23.8026 32.7242 24.8888 33.8552C25.9683 34.9928 27.241 35.6979 28.7003 35.964C26.9145 33.5358 25.8883 30.7551 25.6217 27.615C25.3485 24.4883 25.6417 21.3217 26.508 18.1351C27.321 15.2678 28.4938 12.8064 30.0397 10.7174C31.5857 8.62854 33.3982 6.90551 35.4772 5.52843C37.5629 4.15134 39.8752 3.10023 42.4207 2.36844C44.9662 1.63666 47.6383 1.21755 50.457 1.1111C52.7826 0.998011 55.1481 1.07784 57.5604 1.3506C59.9726 1.62335 62.3648 1.98925 64.7437 2.44828C67.1226 2.9073 69.4682 3.43286 71.7671 4.02494C74.0727 4.61702 76.3317 5.18249 78.544 5.72135C75.9452 7.29136 73.3931 9.28049 70.8742 11.6754C68.3554 14.0837 65.9032 16.7314 63.5243 19.6253C61.1454 22.5125 58.8531 25.5261 56.6608 28.6595C54.4684 31.7929 52.4027 34.8464 50.457 37.8201C48.7244 37.7669 46.9253 37.7469 45.0595 37.7469C43.1936 37.7469 41.3678 37.9066 39.582 38.2259C37.7895 38.5519 36.1036 39.1041 34.5043 39.8891C32.9051 40.6741 31.5124 41.825 30.3262 43.3351C29.2401 44.7388 28.4404 46.402 27.934 48.3179C27.4209 50.2338 27.5409 52.1431 28.2938 54.0325C29.1068 50.4667 30.3529 47.6061 32.0321 45.444C33.065 44.0403 34.2511 42.9027 35.6038 42.0379C36.9565 41.173 38.3892 40.5144 39.9152 40.0554C41.4278 39.5964 43.0137 39.2837 44.6596 39.124C46.3122 38.9577 48.0048 38.8513 49.7373 38.798C48.0048 41.3926 46.2589 44.0802 44.4997 46.861C42.7339 49.6418 40.9147 52.3893 39.0156 55.0902C37.1231 57.7978 35.104 60.3591 32.965 62.7939C30.826 65.2221 28.5404 67.4108 26.1015 69.3601C24.8554 68.8811 23.536 68.3422 22.1234 67.7834C20.7107 67.2246 19.2713 66.699 17.7854 66.24C16.2927 65.781 14.8001 65.4217 13.3208 65.149C11.8281 64.8762 10.3821 64.7432 8.97609 64.7432C6.27067 64.7432 4.17164 65.282 2.68566 66.3597C1.19301 67.4441 0.326744 68.6748 0.0868549 70.0519C-0.153035 71.429 0.220127 72.7662 1.22633 74.0568C2.22587 75.3607 3.86511 76.1923 6.1374 76.5715C7.75665 76.8442 9.47586 76.9573 11.2884 76.9041C13.1009 76.8442 14.9267 76.6313 16.7725 76.2521C18.6116 75.8729 20.3975 75.3873 22.13 74.7952C23.8626 74.2031 25.4285 73.5246 26.8345 72.7728C29.7065 74.283 32.9784 75.8463 36.6633 77.4696C40.3416 79.0928 44.1599 80.5497 48.1047 81.847C52.0562 83.1509 55.9811 84.1887 59.8793 84.967C63.7841 85.752 67.4025 86.0847 70.7543 85.9849C74.166 85.8718 77.158 85.3263 79.7235 84.3217C82.3023 83.3238 84.448 82.0332 86.1805 80.4699C87.913 78.8999 89.1991 77.1436 90.0387 75.201C90.885 73.2585 91.2715 71.2627 91.2182 69.207C91.1649 67.79 90.905 66.3997 90.3986 65.0292L90.3852 65.0425ZM83.4484 4.45736C84.2347 4.13138 84.9277 3.97172 85.5208 3.97172C86.1139 3.97172 86.5603 4.09147 86.8602 4.33096C87.1534 4.57711 87.2867 4.83656 87.2667 5.10266C87.2333 5.37542 87.0334 5.61491 86.6536 5.83445C86.2738 6.05398 85.6807 6.18703 84.8678 6.24025C84.2747 6.29348 83.6483 6.26021 83.002 6.16042C82.3556 6.05398 81.7292 5.94089 81.1362 5.83445C81.8958 5.24237 82.6621 4.78334 83.4484 4.45736ZM19.8377 73.5179C18.4384 74.2164 16.9657 74.7886 15.4531 75.2143C13.9405 75.6534 12.4078 75.9461 10.8685 76.1124C9.32926 76.2721 7.82329 76.2189 6.36396 75.9461C4.30491 75.5669 2.82559 74.8551 1.89935 73.804C0.979776 72.7529 0.639933 71.6552 0.89315 70.5176C1.13304 69.38 1.95266 68.3821 3.36534 67.5173C4.77136 66.6525 6.75045 66.2466 9.29594 66.3065C10.4354 66.3597 11.6549 66.5593 12.9476 66.9053C14.2537 67.2578 15.5464 67.6769 16.8525 68.1692C18.1452 68.6482 19.3913 69.1605 20.5841 69.706C21.7769 70.2449 22.8364 70.7371 23.7559 71.1629C22.5632 72.0277 21.2638 72.8128 19.8511 73.5179H19.8377Z" fill="#FEFBF4"/>
<path d="M82.748 58.3566C83.1612 58.2635 83.5743 58.1637 83.9741 58.0439C83.8609 58.0839 83.7609 58.1105 83.6943 58.1304C83.4411 58.197 83.0013 58.3034 82.748 58.3566Z" fill="#FEFBF4"/>
<path d="M85.2271 57.6383C85.2271 57.6383 85.1605 57.6583 85.0605 57.6915C85.1139 57.6716 85.1672 57.6516 85.2205 57.625V57.6383H85.2271Z" fill="#FEFBF4"/>
</g>
<defs>
<clipPath id="clip0_231_32">
<rect width="188" height="104" fill="white"/>
</clipPath>
</defs>
</svg>
