<svg width="188" height="104" viewBox="0 0 188 104" fill="none" xmlns="http://www.w3.org/2000/svg">
<g clip-path="url(#clip0_97_12)">
<path d="M102.04 55.17C101.06 56.7932 100.001 58.2701 98.8478 59.6206C97.4684 61.2505 95.9624 62.6941 94.3498 63.9914C93.6168 64.5302 92.8372 65.0225 92.0442 65.4549C91.7844 65.5946 91.5178 65.7343 91.2579 65.8607C88.246 67.311 85.0674 67.8099 82.7885 66.4328C80.8494 65.2088 80.9227 62.3415 82.2154 59.2614C82.7419 59.1749 83.2816 59.0751 83.8214 58.962C84.2945 58.8755 84.7743 58.7691 85.254 58.656C90.4383 57.4785 95.6892 55.3962 97.7283 52.163C100.46 47.9985 97.5817 45.6368 93.7035 45.6368C86.8999 45.6368 80.8561 50.6729 78.084 56.5338C78.044 56.607 78.0107 56.6801 77.9774 56.7533C77.8641 57.0061 77.7575 57.2523 77.6642 57.4918C75.3919 63.2529 77.9774 67.1846 81.4225 68.0827C85.214 69.1471 88.5592 68.4286 91.6244 66.7522C91.8776 66.6191 92.1309 66.4728 92.3841 66.3198C93.177 65.8408 93.95 65.2953 94.7097 64.7098C95.6292 64.0047 96.4755 63.2662 97.2685 62.4746C99.3875 60.3856 101.093 58.0173 102.613 55.4561C102.899 54.9571 102.399 54.5979 102.04 55.17ZM83.5015 56.6868C83.6814 56.3741 83.8014 56.1812 83.8813 56.0615C83.908 56.0215 83.9346 55.9816 83.9546 55.9417C83.9813 55.9084 83.9879 55.8951 83.9879 55.8951C84.1545 55.6091 84.3345 55.3164 84.5144 55.0303C87.5263 50.154 91.1913 46.495 93.1304 46.495C94.643 46.495 94.5697 48.5041 92.9172 51.2982C91.0447 54.3584 88.4059 56.434 85.2207 57.6248C85.1674 57.6514 85.1141 57.6714 85.0608 57.6913C85.0275 57.7046 84.9875 57.718 84.9475 57.7313C84.7076 57.8111 84.3678 57.9242 84.0879 58.0107C84.0546 58.024 84.0146 58.0306 83.9813 58.0439C83.8147 58.0905 83.6481 58.1371 83.4815 58.1836C83.4415 58.1969 83.4015 58.2036 83.3549 58.2169C83.2749 58.2369 83.1816 58.2568 83.1017 58.2768C83.0217 58.2967 82.9351 58.3167 82.8551 58.3366C82.8218 58.3433 82.7885 58.3499 82.7552 58.3566C82.7085 58.3699 82.6686 58.3766 82.6419 58.3832C82.6152 58.3899 82.5953 58.3965 82.5819 58.3965C82.5753 58.4032 82.5686 58.4032 82.5686 58.4032C82.5686 58.4032 82.7485 58.0572 82.9751 57.6448C83.1483 57.3254 83.3482 56.9596 83.5082 56.6868H83.5015Z" fill="#4B3935"/>
<path d="M125.809 55.17C124.862 56.8332 123.676 58.503 122.43 59.9998C122.43 59.9998 122.426 60.0042 122.417 60.0131C120.811 61.9357 119.105 63.5922 117.692 64.6367C114.82 66.7189 111.302 68.5816 113.747 64.2109L119.278 54.2386C122.577 48.218 120.498 45.6368 118.412 45.6368C115.753 45.6368 111.875 48.2912 109.003 51.1585C110.869 47.4264 108.357 46.0626 106.344 46.0626L98.8476 59.6206L97.2683 62.4746L97.2217 62.561C94.9227 66.7921 97.5149 68.1492 99.5939 68.1492L106.704 55.3895C108.217 53.0944 110.156 51.0853 111.875 49.7215C115.4 46.9274 118.272 46.0626 116.04 50.0808L110.509 59.9798C107.21 66.0004 109.15 68.5816 111.302 68.5816C114.041 68.5816 117.766 66.2133 121.324 62.3149C123.103 60.3723 124.836 58.0572 126.388 55.4561C126.675 54.9571 126.168 54.5979 125.809 55.17Z" fill="#4B3935"/>
<path d="M187.08 16.0926C181.116 8.70827 172.354 9.20721 162.585 12.5801C148.725 17.4564 137.95 32.3715 130.12 46.1358L122.437 59.9798C122.437 59.9798 122.43 59.9931 122.43 59.9998C122.43 59.9998 122.426 60.0042 122.417 60.0131C121.957 60.8513 121.597 61.6163 121.324 62.3149C120.444 64.5435 120.451 66.1135 120.997 67.1447C122.65 70.5907 128.181 67.291 130.12 65.7143C131.399 64.6765 132.712 63.4392 133.998 62.0355C135.757 60.1195 137.463 57.8975 138.956 55.456C139.169 54.9571 138.736 54.5979 138.383 55.17C137.49 56.7467 136.364 58.2834 135.164 59.6871C133.472 61.6829 131.633 63.4192 130.12 64.6366C127.388 66.8586 123.15 68.5816 125.595 64.2109L134.505 48.3577C141.541 35.7378 150.804 18.1749 163.085 13.4383C172.354 9.85252 183.055 9.56645 186.001 20.8226C188.726 19.9645 188.226 17.4564 187.08 16.0926Z" fill="#4B3935"/>
<path d="M152.17 50.726L147.859 58.5428C146.28 60.838 144.267 62.7007 142.541 64.0645C139.096 66.9318 135.791 68.2224 138.017 64.1377L144.987 51.5842C147.359 47.4263 144.774 46.0626 142.688 46.0626L135.165 59.6871L135.005 59.9798C134.592 60.7182 134.258 61.4034 133.999 62.0354C132.139 66.5925 133.965 68.5816 135.791 68.5816C138.377 68.5816 142.761 65.4283 145.773 62.3415L143.767 65.854C136.584 78.4075 127.462 96.0435 115.181 100.78C105.911 104.366 95.2098 104.652 92.2644 93.3891C89.539 94.254 90.0388 96.762 91.1916 98.1258C97.1489 105.51 105.911 105.011 115.68 101.638C129.541 96.762 140.389 81.92 148.005 68.0826L160.14 46.0626C156.548 46.0626 154.469 46.5682 152.17 50.726Z" fill="#4B3935"/>
<path d="M185.421 55.17C183.195 58.9753 179.89 62.7739 177.305 64.6366C174.36 66.7189 170.914 68.5816 173.353 64.2108L183.409 46.0626C179.964 46.0626 177.885 46.495 175.726 50.0076C176.012 47.5727 175.292 45.996 173.427 45.6368C167.683 44.6323 161.432 52.3027 158.773 57.1059C155.828 62.4146 155.468 68.3687 160.499 68.5816C163.158 68.5816 165.957 66.7921 168.616 63.6321C167.756 67.0781 169.262 68.5816 170.914 68.5816C175.006 68.5816 181.33 63.2728 186.001 55.456C186.287 54.9571 185.781 54.5978 185.421 55.17ZM162.652 67.0781C160.139 67.0781 161.146 62.8471 164.377 57.0393C167.609 51.2316 171.847 47.3598 173.713 47.2866C175.726 47.2866 175.006 51.2316 171.774 57.0393C168.542 62.8471 164.524 67.0781 162.652 67.0781Z" fill="#4B3935"/>
<path d="M90.3852 65.0424C90.2786 64.7364 90.1587 64.4237 90.0254 64.1177C90.0187 64.1044 90.0121 64.0778 90.0054 64.0645C89.2724 62.408 88.2062 60.8978 86.7802 59.5407C85.5341 58.3432 84.0548 57.2921 82.3289 56.3807C82.0557 56.241 81.7892 56.1013 81.5093 55.9683C81.3027 55.8685 81.1028 55.782 80.8896 55.6889H80.8829C80.6964 55.7421 80.5031 55.7953 80.3165 55.8485C80.2699 55.8618 80.2232 55.8685 80.1766 55.8884C80.0833 55.9084 79.9833 55.935 79.8901 55.955C79.7968 55.9749 79.7035 56.0015 79.6102 56.0215C79.5702 56.0281 79.5369 56.0348 79.4969 56.0414C79.4436 56.0547 79.3969 56.0614 79.3703 56.0747C79.337 56.0814 79.317 56.088 79.3037 56.088C79.297 56.0947 79.2903 56.0947 79.2903 56.0947C79.2903 56.0947 79.4969 55.7022 79.7501 55.2365C78.0909 54.6377 76.2584 54.212 74.246 53.9791H74.2327C72.0204 53.7064 69.7214 53.7396 67.3492 54.059C64.9703 54.3849 62.678 55.0036 60.4857 55.9217C58.2933 56.8398 56.2876 58.0572 54.4751 59.5673C52.6693 61.0775 51.2433 62.8936 50.2171 64.9958C49.5107 66.3463 49.1043 67.7567 48.9976 69.2136C48.8844 70.6705 49.1576 71.9677 49.8106 73.0987C50.5636 70.6106 51.7164 68.209 53.2623 65.8873C54.8083 63.5655 56.6474 61.5498 58.7865 59.8467C60.9188 58.137 63.311 56.8464 65.9698 55.9483C68.4487 55.1234 71.0475 54.8107 73.7596 55.0435C73.9461 55.0569 74.146 55.0768 74.3326 55.0968C76.7049 55.3496 78.8372 55.8884 80.723 56.7067C80.8563 56.7599 80.9896 56.8198 81.1162 56.8797C83.0886 57.8044 84.7545 58.922 86.1072 60.2459C87.4199 61.5365 88.4328 62.9535 89.1258 64.5035C89.1458 64.5435 89.1724 64.5834 89.1858 64.6233C89.3124 64.916 89.4323 65.2154 89.5389 65.5081C90.0187 66.812 90.2786 68.1159 90.3253 69.4398C90.3786 71.2759 89.9987 73.0588 89.1858 74.7884C88.3728 76.5181 87.16 78.0283 85.5341 79.3322C83.9149 80.6228 81.8492 81.6539 79.3636 82.4123C76.8714 83.1641 73.9794 83.49 70.681 83.3836C67.5957 83.2705 64.2439 82.7915 60.6123 81.9267C56.9873 81.0618 53.3556 80.024 49.7373 78.8066C46.1056 77.5892 42.5673 76.2653 39.1022 74.835C35.6371 73.3981 32.5252 72.0609 29.7598 70.8168C32.5785 68.9807 35.1907 66.8186 37.6029 64.3372C40.0084 61.8558 42.2674 59.1948 44.3798 56.3541C46.4921 53.5201 48.4779 50.6196 50.3437 47.6459C52.2095 44.6655 54.002 41.7517 55.7412 38.8911C57.8536 39.0507 60.1858 39.3035 62.7646 39.6561C65.3301 40.0087 67.7423 40.1417 69.988 40.0619C72.2336 39.9821 74.1127 39.5563 75.632 38.8046C77.1447 38.0462 77.8777 36.6358 77.8243 34.5868C77.4445 35.5648 76.485 36.2965 74.9457 36.7755C73.3997 37.2612 71.5872 37.6005 69.5015 37.7934C67.4225 37.9797 65.2035 38.0661 62.8512 38.0329C60.4923 38.0129 58.32 37.9664 56.3143 37.9131C58.1534 34.8929 60.0525 31.806 61.9916 28.6727C63.9441 25.546 65.9298 22.5589 67.9622 19.7183C69.988 16.8843 72.0603 14.2898 74.166 11.9414C76.2784 9.58639 78.4441 7.68374 80.6697 6.22683C81.3694 6.38649 82.089 6.51954 82.8154 6.63264C83.5484 6.73908 84.2614 6.76569 84.9677 6.70581C85.9406 6.65259 86.6536 6.45302 87.1134 6.10708C87.5732 5.75449 87.8064 5.37529 87.8064 4.96949C87.8064 4.56368 87.5998 4.19779 87.1934 3.87181C86.7869 3.54583 86.2071 3.39282 85.4475 3.39282C83.555 3.39282 81.4693 4.06473 79.197 5.41521C76.8181 4.87635 74.4392 4.27762 72.0537 3.63232C69.6748 2.98701 67.2959 2.38828 64.9036 1.84942C62.5247 1.31056 60.1258 0.864837 57.7269 0.512249C55.3147 0.159662 52.8892 -0.0133057 50.457 -0.0133057C47.4184 -0.0133057 44.4264 0.339282 41.4411 1.0378C38.4692 1.73633 35.6971 2.8207 33.125 4.27762C30.5461 5.73453 28.3072 7.58396 26.3814 9.82588C24.4623 12.0745 23.0696 14.7621 22.2033 17.8955C21.6103 20.0043 21.3371 22.0866 21.3904 24.1356C21.4437 26.1913 21.7702 28.0407 22.3699 29.6839C22.963 31.3337 23.8026 32.7241 24.8888 33.855C25.9683 34.9926 27.241 35.6978 28.7003 35.9639C26.9145 33.5357 25.8883 30.7549 25.6217 27.6149C25.3485 24.4882 25.6417 21.3216 26.508 18.135C27.321 15.2677 28.4938 12.8062 30.0397 10.7173C31.5857 8.62841 33.3982 6.90539 35.4772 5.52831C37.5629 4.15122 39.8752 3.10011 42.4207 2.36832C44.9662 1.63654 47.6383 1.21742 50.457 1.11098C52.7826 0.997888 55.1481 1.07772 57.5604 1.35048C59.9726 1.62323 62.3648 1.98912 64.7437 2.44815C67.1226 2.90718 69.4682 3.43274 71.7671 4.02482C74.0727 4.6169 76.3317 5.18237 78.544 5.72123C75.9452 7.29124 73.3931 9.28037 70.8742 11.6753C68.3554 14.0835 65.9032 16.7313 63.5243 19.6251C61.1454 22.5124 58.8531 25.526 56.6608 28.6594C54.4684 31.7927 52.4027 34.8463 50.457 37.82C48.7244 37.7668 46.9253 37.7468 45.0595 37.7468C43.1936 37.7468 41.3678 37.9065 39.582 38.2258C37.7895 38.5518 36.1036 39.1039 34.5043 39.8889C32.9051 40.674 31.5124 41.8248 30.3262 43.335C29.2401 44.7387 28.4404 46.4018 27.934 48.3178C27.4209 50.2337 27.5409 52.143 28.2938 54.0324C29.1068 50.4666 30.3529 47.6059 32.0321 45.4439C33.065 44.0402 34.2511 42.9026 35.6038 42.0377C36.9565 41.1729 38.3892 40.5143 39.9152 40.0553C41.4278 39.5962 43.0137 39.2836 44.6596 39.1239C46.3122 38.9576 48.0048 38.8511 49.7373 38.7979C48.0048 41.3924 46.2589 44.0801 44.4997 46.8609C42.7339 49.6416 40.9147 52.3892 39.0156 55.0901C37.1231 57.7977 35.104 60.359 32.965 62.7938C30.826 65.222 28.5404 67.4107 26.1015 69.3599C24.8554 68.8809 23.536 68.3421 22.1234 67.7833C20.7107 67.2244 19.2713 66.6989 17.7854 66.2399C16.2927 65.7808 14.8001 65.4216 13.3208 65.1488C11.8281 64.8761 10.3821 64.743 8.97609 64.743C6.27067 64.743 4.17164 65.2819 2.68566 66.3596C1.19301 67.444 0.326744 68.6747 0.0868549 70.0518C-0.153035 71.4289 0.220127 72.7661 1.22633 74.0567C2.22587 75.3606 3.86511 76.1921 6.1374 76.5713C7.75665 76.8441 9.47586 76.9572 11.2884 76.904C13.1009 76.8441 14.9267 76.6312 16.7725 76.252C18.6116 75.8728 20.3975 75.3872 22.13 74.7951C23.8626 74.203 25.4285 73.5245 26.8345 72.7727C29.7065 74.2829 32.9784 75.8462 36.6633 77.4694C40.3416 79.0927 44.1599 80.5496 48.1047 81.8468C52.0562 83.1508 55.9811 84.1886 59.8793 84.9669C63.7841 85.7519 67.4025 86.0846 70.7543 85.9848C74.166 85.8717 77.158 85.3262 79.7235 84.3216C82.3023 83.3237 84.448 82.0331 86.1805 80.4698C87.913 78.8997 89.1991 77.1435 90.0387 75.2009C90.885 73.2584 91.2715 71.2626 91.2182 69.2069C91.1649 67.7899 90.905 66.3995 90.3986 65.0291L90.3852 65.0424ZM83.4484 4.45724C84.2347 4.13126 84.9277 3.9716 85.5208 3.9716C86.1139 3.9716 86.5603 4.09134 86.8602 4.33084C87.1534 4.57698 87.2867 4.83643 87.2667 5.10254C87.2333 5.37529 87.0334 5.61479 86.6536 5.83432C86.2738 6.05386 85.6807 6.18691 84.8678 6.24013C84.2747 6.29335 83.6483 6.26009 83.002 6.1603C82.3556 6.05386 81.7292 5.94077 81.1362 5.83432C81.8958 5.24224 82.6621 4.78321 83.4484 4.45724ZM19.8377 73.5178C18.4384 74.2163 16.9657 74.7884 15.4531 75.2142C13.9405 75.6533 12.4078 75.946 10.8685 76.1123C9.32926 76.272 7.82329 76.2188 6.36396 75.946C4.30491 75.5668 2.82559 74.855 1.89935 73.8039C0.979776 72.7528 0.639933 71.6551 0.89315 70.5175C1.13304 69.3799 1.95266 68.382 3.36534 67.5172C4.77136 66.6523 6.75045 66.2465 9.29594 66.3064C10.4354 66.3596 11.6549 66.5592 12.9476 66.9051C14.2537 67.2577 15.5464 67.6768 16.8525 68.1691C18.1452 68.6481 19.3913 69.1604 20.5841 69.7059C21.7769 70.2447 22.8364 70.737 23.7559 71.1628C22.5632 72.0276 21.2638 72.8126 19.8511 73.5178H19.8377Z" fill="#4B3935"/>
<path d="M82.748 58.3566C83.1612 58.2634 83.5743 58.1636 83.9741 58.0439C83.8609 58.0838 83.7609 58.1104 83.6943 58.1304C83.4411 58.1969 83.0013 58.3033 82.748 58.3566Z" fill="#4B3935"/>
<path d="M85.2271 57.6381C85.2271 57.6381 85.1605 57.658 85.0605 57.6913C85.1139 57.6713 85.1672 57.6514 85.2205 57.6248V57.6381H85.2271Z" fill="#4B3935"/>
</g>
<defs>
<clipPath id="clip0_97_12">
<rect width="188" height="104" fill="white"/>
</clipPath>
</defs>
</svg>
