<svg width="188" height="104" viewBox="0 0 188 104" fill="none" xmlns="http://www.w3.org/2000/svg">
<path d="M102.023 55.1704C101.044 56.7936 99.9842 58.2705 98.8314 59.621C97.452 61.2508 95.946 62.6945 94.3335 63.9917C93.6005 64.5306 92.8208 65.0229 92.0279 65.4553C91.768 65.595 91.5014 65.7347 91.2416 65.8611C88.2296 67.3114 85.0511 67.8103 82.7721 66.4332C80.833 65.2091 80.9063 62.3419 82.1991 59.2617C82.7255 59.1752 83.2652 59.0754 83.805 58.9624C84.2781 58.8759 84.7579 58.7694 85.2377 58.6563C90.4219 57.4788 95.6728 55.3966 97.7119 52.1634C100.444 47.9989 97.5653 45.6372 93.6871 45.6372C86.8836 45.6372 80.8397 50.6732 78.0676 56.5342C78.0276 56.6073 77.9943 56.6805 77.961 56.7537C77.8477 57.0065 77.7411 57.2526 77.6478 57.4921C75.3755 63.2533 77.961 67.185 81.4061 68.0831C85.1977 69.1475 88.5428 68.429 91.6081 66.7525C91.8613 66.6195 92.1145 66.4731 92.3677 66.3201C93.1607 65.8411 93.9336 65.2956 94.6933 64.7102C95.6129 64.005 96.4591 63.2666 97.2521 62.4749C99.3711 60.386 101.077 58.0177 102.596 55.4564C102.883 54.9575 102.383 54.5983 102.023 55.1704ZM83.4851 56.6872C83.665 56.3745 83.785 56.1816 83.865 56.0618C83.8916 56.0219 83.9183 55.982 83.9383 55.9421C83.9649 55.9088 83.9716 55.8955 83.9716 55.8955C84.1382 55.6094 84.3181 55.3167 84.498 55.0307C87.5099 50.1543 91.1749 46.4954 93.114 46.4954C94.6267 46.4954 94.5534 48.5045 92.9008 51.2986C91.0283 54.3588 88.3895 56.4344 85.2043 57.6252C85.151 57.6518 85.0977 57.6718 85.0444 57.6917C85.0111 57.705 84.9711 57.7183 84.9311 57.7316C84.6912 57.8115 84.3514 57.9245 84.0715 58.011C84.0382 58.0243 83.9982 58.031 83.9649 58.0443C83.7983 58.0909 83.6317 58.1374 83.4651 58.184C83.4252 58.1973 83.3852 58.204 83.3385 58.2173C83.2586 58.2372 83.1653 58.2572 83.0853 58.2771C83.0053 58.2971 82.9187 58.3171 82.8388 58.337C82.8054 58.3437 82.7721 58.3503 82.7388 58.357C82.6922 58.3703 82.6522 58.3769 82.6255 58.3836C82.5989 58.3902 82.5789 58.3969 82.5656 58.3969C82.5589 58.4035 82.5522 58.4035 82.5522 58.4035C82.5522 58.4035 82.7321 58.0576 82.9587 57.6451C83.132 57.3258 83.3319 56.9599 83.4918 56.6872H83.4851Z" fill="#FEFBF4"/>
<path d="M125.792 55.1704C124.846 56.8335 123.66 58.5033 122.414 60.0002C122.414 60.0002 122.409 60.0046 122.401 60.0135C120.795 61.9361 119.089 63.5926 117.676 64.637C114.804 66.7193 111.286 68.582 113.731 64.2112L119.262 54.239C122.56 48.2184 120.481 45.6372 118.396 45.6372C115.737 45.6372 111.859 48.2916 108.987 51.1589C110.853 47.4268 108.34 46.063 106.328 46.063L98.8314 59.621L97.2521 62.4749L97.2055 62.5614C94.9065 66.7925 97.4987 68.1496 99.5777 68.1496L106.688 55.3899C108.2 53.0948 110.14 51.0857 111.859 49.7219C115.384 46.9278 118.256 46.063 116.023 50.0811L110.493 59.9802C107.194 66.0008 109.133 68.582 111.286 68.582C114.024 68.582 117.749 66.2137 121.308 62.3153C123.087 60.3727 124.819 58.0576 126.372 55.4564C126.659 54.9575 126.152 54.5983 125.792 55.1704Z" fill="#FEFBF4"/>
<path d="M187.064 16.0929C181.1 8.70851 172.337 9.20746 162.569 12.5803C148.708 17.4567 137.933 32.3718 130.104 46.136L122.421 59.9801C122.421 59.9801 122.414 59.9934 122.414 60C122.414 60 122.409 60.0044 122.401 60.0133C121.941 60.8515 121.581 61.6166 121.308 62.3151C120.428 64.5437 120.435 66.1137 120.981 67.1449C122.634 70.5909 128.165 67.2913 130.104 65.7146C131.383 64.6768 132.696 63.4394 133.982 62.0357C135.741 60.1198 137.447 57.8978 138.94 55.4563C139.153 54.9573 138.72 54.5981 138.366 55.1702C137.474 56.7469 136.347 58.2836 135.148 59.6873C133.455 61.6831 131.616 63.4194 130.104 64.6369C127.372 66.8588 123.134 68.5819 125.579 64.2111L134.488 48.358C141.525 35.738 150.787 18.1752 163.068 13.4385C172.337 9.85276 183.039 9.5667 185.985 20.8229C188.71 19.9647 188.21 17.4567 187.064 16.0929Z" fill="#FEFBF4"/>
<path d="M152.153 50.7265L147.842 58.5433C146.263 60.8384 144.25 62.7011 142.525 64.0649C139.079 66.9322 135.774 68.2228 138 64.1381L144.97 51.5846C147.342 47.4268 144.757 46.063 142.671 46.063L135.148 59.6875L134.988 59.9802C134.575 60.7187 134.242 61.4039 133.982 62.0359C132.123 66.5929 133.949 68.582 135.774 68.582C138.36 68.582 142.744 65.4287 145.756 62.3419L143.751 65.8545C136.567 78.4079 127.445 96.0439 115.164 100.781C105.895 104.366 95.1931 104.652 92.2478 93.3895C89.5223 94.2544 90.0221 96.7624 91.1749 98.1262C97.1322 105.511 105.895 105.012 115.664 101.639C129.524 96.7624 140.372 81.9205 147.989 68.0831L160.123 46.063C156.531 46.063 154.452 46.5686 152.153 50.7265Z" fill="#FEFBF4"/>
<path d="M185.405 55.1702C183.179 58.9754 179.874 62.7741 177.289 64.6368C174.343 66.7191 170.898 68.5818 173.337 64.211L183.392 46.0628C179.947 46.0628 177.868 46.4952 175.709 50.0077C175.996 47.5729 175.276 45.9962 173.41 45.637C167.666 44.6324 161.416 52.3029 158.757 57.1061C155.812 62.4148 155.452 68.3689 160.483 68.5818C163.142 68.5818 165.94 66.7922 168.599 63.6323C167.74 67.0783 169.246 68.5818 170.898 68.5818C174.99 68.5818 181.313 63.273 185.985 55.4562C186.271 54.9573 185.765 54.598 185.405 55.1702ZM162.635 67.0783C160.123 67.0783 161.129 62.8472 164.361 57.0395C167.593 51.2318 171.831 47.36 173.697 47.2868C175.709 47.2868 174.99 51.2318 171.758 57.0395C168.526 62.8472 164.508 67.0783 162.635 67.0783Z" fill="#FEFBF4"/>
<path d="M90.3686 65.0425C90.262 64.7365 90.1421 64.4238 90.0088 64.1178C90.0021 64.1045 89.9955 64.0779 89.9888 64.0646C89.2558 62.4081 88.1896 60.898 86.7636 59.5408C85.5175 58.3434 84.0382 57.2923 82.3123 56.3808C82.0391 56.2411 81.7726 56.1014 81.4927 55.9684C81.2861 55.8686 81.0862 55.7821 80.873 55.689H80.8663C80.6797 55.7422 80.4865 55.7954 80.2999 55.8486C80.2533 55.8619 80.2066 55.8686 80.16 55.8886C80.0667 55.9085 79.9667 55.9351 79.8735 55.9551C79.7802 55.975 79.6869 56.0016 79.5936 56.0216C79.5536 56.0283 79.5203 56.0349 79.4803 56.0416C79.427 56.0549 79.3803 56.0615 79.3537 56.0748C79.3204 56.0815 79.3004 56.0881 79.2871 56.0881C79.2804 56.0948 79.2737 56.0948 79.2737 56.0948C79.2737 56.0948 79.4803 55.7023 79.7335 55.2366C78.0743 54.6379 76.2418 54.2121 74.2294 53.9793H74.2161C72.0038 53.7065 69.7048 53.7398 67.3326 54.0591C64.9537 54.3851 62.6614 55.0038 60.4691 55.9218C58.2767 56.8399 56.271 58.0573 54.4585 59.5674C52.6527 61.0776 51.2267 62.8937 50.2005 64.9959C49.4941 66.3464 49.0877 67.7568 48.981 69.2137C48.8678 70.6706 49.141 71.9679 49.794 73.0988C50.547 70.6107 51.6998 68.2092 53.2457 65.8874C54.7917 63.5656 56.6308 61.5499 58.7699 59.8468C60.9022 58.1371 63.2944 56.8465 65.9532 55.9484C68.4321 55.1235 71.0309 54.8108 73.743 55.0437C73.9295 55.057 74.1294 55.0769 74.316 55.0969C76.6883 55.3497 78.8206 55.8886 80.7064 56.7068C80.8397 56.76 80.973 56.8199 81.0996 56.8798C83.072 57.8045 84.7379 58.9221 86.0906 60.246C87.4033 61.5366 88.4162 62.9536 89.1092 64.5037C89.1292 64.5436 89.1558 64.5835 89.1692 64.6234C89.2958 64.9161 89.4157 65.2155 89.5223 65.5082C90.0021 66.8121 90.262 68.116 90.3087 69.4399C90.362 71.276 89.9821 73.0589 89.1692 74.7886C88.3562 76.5182 87.1434 78.0284 85.5175 79.3323C83.8983 80.6229 81.8326 81.654 79.347 82.4124C76.8548 83.1642 73.9628 83.4902 70.6644 83.3837C67.5791 83.2706 64.2273 82.7916 60.5957 81.9268C56.9707 81.062 53.339 80.0242 49.7207 78.8067C46.089 77.5893 42.5507 76.2654 39.0856 74.8351C35.6205 73.3982 32.5086 72.061 29.7432 70.817C32.5619 68.9809 35.1741 66.8188 37.5863 64.3373C39.9918 61.8559 42.2508 59.1949 44.3632 56.3542C46.4755 53.5202 48.4613 50.6197 50.3271 47.646C52.1929 44.6656 53.9854 41.7518 55.7246 38.8912C57.837 39.0508 60.1692 39.3036 62.748 39.6562C65.3135 40.0088 67.7257 40.1419 69.9714 40.062C72.217 39.9822 74.0961 39.5564 75.6154 38.8047C77.1281 38.0463 77.8611 36.636 77.8077 34.587C77.4279 35.5649 76.4684 36.2967 74.9291 36.7757C73.3831 37.2613 71.5706 37.6006 69.4849 37.7935C67.4059 37.9798 65.1869 38.0663 62.8346 38.033C60.4757 38.013 58.3034 37.9665 56.2977 37.9132C58.1368 34.893 60.0359 31.8062 61.975 28.6728C63.9275 25.5461 65.9132 22.5591 67.9456 19.7184C69.9714 16.8844 72.0437 14.2899 74.1494 11.9415C76.2618 9.58651 78.4275 7.68387 80.6531 6.22695C81.3528 6.38661 82.0724 6.51966 82.7988 6.63276C83.5318 6.7392 84.2448 6.76581 84.9511 6.70594C85.924 6.65271 86.637 6.45314 87.0968 6.1072C87.5566 5.75462 87.7898 5.37542 87.7898 4.96961C87.7898 4.5638 87.5832 4.19791 87.1768 3.87193C86.7703 3.54595 86.1905 3.39294 85.4309 3.39294C83.5384 3.39294 81.4527 4.06486 79.1804 5.41533C76.8015 4.87647 74.4226 4.27774 72.0371 3.63244C69.6582 2.98714 67.2793 2.3884 64.887 1.84954C62.5081 1.31068 60.1092 0.864959 57.7103 0.512371C55.2981 0.159784 52.8726 -0.0131836 50.4404 -0.0131836C47.4018 -0.0131836 44.4098 0.339404 41.4245 1.03793C38.4526 1.73645 35.6805 2.82082 33.1084 4.27774C30.5295 5.73466 28.2906 7.58408 26.3648 9.826C24.4457 12.0746 23.053 14.7622 22.1867 17.8956C21.5937 20.0045 21.3205 22.0867 21.3738 24.1357C21.4271 26.1914 21.7536 28.0408 22.3533 29.684C22.9464 31.3338 23.786 32.7242 24.8722 33.8552C25.9517 34.9928 27.2244 35.6979 28.6837 35.964C26.8979 33.5358 25.8717 30.7551 25.6051 27.615C25.3319 24.4883 25.6251 21.3217 26.4914 18.1351C27.3044 15.2678 28.4772 12.8064 30.0231 10.7174C31.5691 8.62854 33.3816 6.90551 35.4606 5.52843C37.5463 4.15134 39.8586 3.10023 42.4041 2.36844C44.9496 1.63666 47.6217 1.21755 50.4404 1.1111C52.766 0.998011 55.1315 1.07784 57.5438 1.3506C59.956 1.62335 62.3482 1.98925 64.7271 2.44828C67.106 2.9073 69.4516 3.43286 71.7505 4.02494C74.0561 4.61702 76.3151 5.18249 78.5274 5.72135C75.9286 7.29136 73.3764 9.28049 70.8576 11.6754C68.3388 14.0837 65.8866 16.7314 63.5077 19.6253C61.1288 22.5125 58.8365 25.5261 56.6442 28.6595C54.4518 31.7929 52.3861 34.8464 50.4404 37.8201C48.7078 37.7669 46.9087 37.7469 45.0429 37.7469C43.177 37.7469 41.3512 37.9066 39.5654 38.2259C37.7729 38.5519 36.087 39.1041 34.4877 39.8891C32.8885 40.6741 31.4958 41.825 30.3096 43.3351C29.2235 44.7388 28.4238 46.402 27.9174 48.3179C27.4043 50.2338 27.5243 52.1431 28.2772 54.0325C29.0902 50.4667 30.3363 47.6061 32.0155 45.444C33.0484 44.0403 34.2345 42.9027 35.5872 42.0379C36.9399 41.173 38.3726 40.5144 39.8986 40.0554C41.4112 39.5964 42.9971 39.2837 44.643 39.124C46.2956 38.9577 47.9882 38.8513 49.7207 38.798C47.9882 41.3926 46.2423 44.0802 44.4831 46.861C42.7173 49.6418 40.8981 52.3893 38.999 55.0902C37.1065 57.7978 35.0874 60.3591 32.9484 62.7939C30.8094 65.2221 28.5238 67.4108 26.0849 69.3601C24.8388 68.8811 23.5194 68.3422 22.1068 67.7834C20.6941 67.2246 19.2547 66.699 17.7688 66.24C16.2761 65.781 14.7835 65.4217 13.3042 65.149C11.8115 64.8762 10.3655 64.7432 8.95949 64.7432C6.25407 64.7432 4.15504 65.282 2.66906 66.3597C1.17641 67.4441 0.310143 68.6748 0.0702533 70.0519C-0.169636 71.429 0.203525 72.7662 1.20973 74.0568C2.20927 75.3607 3.84851 76.1923 6.1208 76.5715C7.74005 76.8442 9.45926 76.9573 11.2718 76.9041C13.0843 76.8442 14.9101 76.6313 16.7559 76.2521C18.595 75.8729 20.3809 75.3873 22.1134 74.7952C23.846 74.2031 25.4119 73.5246 26.8179 72.7728C29.6899 74.283 32.9618 75.8463 36.6467 77.4696C40.325 79.0928 44.1433 80.5497 48.0881 81.847C52.0396 83.1509 55.9645 84.1887 59.8627 84.967C63.7675 85.752 67.3859 86.0847 70.7377 85.9849C74.1494 85.8718 77.1414 85.3263 79.7069 84.3217C82.2857 83.3238 84.4314 82.0332 86.1639 80.4699C87.8964 78.8999 89.1825 77.1436 90.0221 75.201C90.8684 73.2585 91.2549 71.2627 91.2016 69.207C91.1483 67.79 90.8884 66.3997 90.382 65.0292L90.3686 65.0425ZM83.4318 4.45736C84.2181 4.13138 84.9111 3.97172 85.5042 3.97172C86.0973 3.97172 86.5437 4.09147 86.8436 4.33096C87.1368 4.57711 87.2701 4.83656 87.2501 5.10266C87.2167 5.37542 87.0168 5.61491 86.637 5.83445C86.2572 6.05398 85.6641 6.18703 84.8512 6.24025C84.2581 6.29348 83.6317 6.26021 82.9854 6.16042C82.339 6.05398 81.7126 5.94089 81.1196 5.83445C81.8792 5.24237 82.6455 4.78334 83.4318 4.45736ZM19.8211 73.5179C18.4218 74.2164 16.9491 74.7886 15.4365 75.2143C13.9239 75.6534 12.3912 75.9461 10.8519 76.1124C9.31266 76.2721 7.80669 76.2189 6.34736 75.9461C4.28831 75.5669 2.80899 74.8551 1.88275 73.804C0.963175 72.7529 0.623332 71.6552 0.876548 70.5176C1.11644 69.38 1.93606 68.3821 3.34874 67.5173C4.75476 66.6525 6.73385 66.2466 9.27934 66.3065C10.4188 66.3597 11.6383 66.5593 12.931 66.9053C14.2371 67.2578 15.5298 67.6769 16.8359 68.1692C18.1286 68.6482 19.3747 69.1605 20.5675 69.706C21.7603 70.2449 22.8198 70.7371 23.7393 71.1629C22.5466 72.0277 21.2472 72.8128 19.8345 73.5179H19.8211Z" fill="#FEFBF4"/>
</svg>
